<svg width="1056" height="109" viewBox="0 0 1056 109" fill="none" xmlns="http://www.w3.org/2000/svg">
<g id="pipeline" clip-path="url(#clip0_1_4)">
<g id="composite">
<g id="color">
<path d="M1060 0.999997C1060 0.447713 1059.55 0 1059 0L791.585 0C790.85 0 790.366 0.766822 790.682 1.43047L816.733 56.0532C816.867 56.3348 816.863 56.6628 816.72 56.9403L790.748 107.543C790.406 108.209 790.889 109 791.637 109H1059C1059.55 109 1060 108.552 1060 108V0.999997Z" fill="#4EF569"/>
<path d="M1060 0.999997C1060 0.447713 1059.55 0 1059 0L791.585 0C790.85 0 790.366 0.766822 790.682 1.43047L816.733 56.0532C816.867 56.3348 816.863 56.6628 816.72 56.9403L790.748 107.543C790.406 108.209 790.889 109 791.637 109H1059C1059.55 109 1060 108.552 1060 108V0.999997Z" fill="#4EF569"/>
</g>
<path id="Composite" d="M845.98 69.6C843.1 69.6 840.633 68.9733 838.58 67.72C836.527 66.4533 834.947 64.6933 833.84 62.44C832.747 60.1867 832.2 57.5733 832.2 54.6C832.2 51.6267 832.747 49.0133 833.84 46.76C834.947 44.5067 836.527 42.7533 838.58 41.5C840.633 40.2333 843.1 39.6 845.98 39.6C849.3 39.6 852.067 40.4333 854.28 42.1C856.493 43.7533 858.047 45.9867 858.94 48.8L854.08 50.14C853.52 48.26 852.567 46.7933 851.22 45.74C849.873 44.6733 848.127 44.14 845.98 44.14C844.047 44.14 842.433 44.5733 841.14 45.44C839.86 46.3067 838.893 47.5267 838.24 49.1C837.6 50.66 837.273 52.4933 837.26 54.6C837.26 56.7067 837.58 58.5467 838.22 60.12C838.873 61.68 839.847 62.8933 841.14 63.76C842.433 64.6267 844.047 65.06 845.98 65.06C848.127 65.06 849.873 64.5267 851.22 63.46C852.567 62.3933 853.52 60.9267 854.08 59.06L858.94 60.4C858.047 63.2133 856.493 65.4533 854.28 67.12C852.067 68.7733 849.3 69.6 845.98 69.6ZM872.871 69.6C870.711 69.6 868.825 69.1133 867.211 68.14C865.598 67.1667 864.345 65.8267 863.451 64.12C862.571 62.4 862.131 60.4267 862.131 58.2C862.131 55.9333 862.585 53.9467 863.491 52.24C864.398 50.5333 865.658 49.2 867.271 48.24C868.885 47.28 870.751 46.8 872.871 46.8C875.045 46.8 876.938 47.2867 878.551 48.26C880.165 49.2333 881.418 50.58 882.311 52.3C883.205 54.0067 883.651 55.9733 883.651 58.2C883.651 60.44 883.198 62.42 882.291 64.14C881.398 65.8467 880.145 67.1867 878.531 68.16C876.918 69.12 875.031 69.6 872.871 69.6ZM872.871 65.08C874.791 65.08 876.218 64.44 877.151 63.16C878.085 61.88 878.551 60.2267 878.551 58.2C878.551 56.1067 878.078 54.44 877.131 53.2C876.185 51.9467 874.765 51.32 872.871 51.32C871.578 51.32 870.511 51.6133 869.671 52.2C868.845 52.7733 868.231 53.58 867.831 54.62C867.431 55.6467 867.231 56.84 867.231 58.2C867.231 60.2933 867.705 61.9667 868.651 63.22C869.611 64.46 871.018 65.08 872.871 65.08ZM913.998 69V55.88C913.998 54.4 913.631 53.2467 912.898 52.42C912.164 51.58 911.171 51.16 909.918 51.16C909.144 51.16 908.451 51.34 907.838 51.7C907.224 52.0467 906.738 52.5667 906.378 53.26C906.018 53.94 905.838 54.7533 905.838 55.7L903.698 54.44C903.684 52.9467 904.018 51.6333 904.698 50.5C905.391 49.3533 906.324 48.46 907.498 47.82C908.671 47.18 909.978 46.86 911.418 46.86C913.804 46.86 915.631 47.58 916.898 49.02C918.178 50.4467 918.818 52.3267 918.818 54.66V69H913.998ZM888.018 69V47.4H892.278V54.1H892.878V69H888.018ZM901.038 69V55.94C901.038 54.4333 900.671 53.26 899.938 52.42C899.204 51.58 898.204 51.16 896.938 51.16C895.711 51.16 894.724 51.58 893.978 52.42C893.244 53.26 892.878 54.3533 892.878 55.7L890.718 54.26C890.718 52.86 891.064 51.6 891.758 50.48C892.451 49.36 893.384 48.48 894.558 47.84C895.744 47.1867 897.071 46.86 898.538 46.86C900.151 46.86 901.498 47.2067 902.578 47.9C903.671 48.58 904.484 49.5133 905.018 50.7C905.564 51.8733 905.838 53.2 905.838 54.68V69H901.038ZM934.414 69.6C932.308 69.6 930.541 69.1 929.114 68.1C927.688 67.1 926.614 65.74 925.894 64.02C925.174 62.2867 924.814 60.3467 924.814 58.2C924.814 56.0267 925.174 54.08 925.894 52.36C926.614 50.64 927.668 49.2867 929.054 48.3C930.454 47.3 932.181 46.8 934.234 46.8C936.274 46.8 938.041 47.3 939.534 48.3C941.041 49.2867 942.208 50.64 943.034 52.36C943.861 54.0667 944.274 56.0133 944.274 58.2C944.274 60.36 943.868 62.3 943.054 64.02C942.241 65.74 941.094 67.1 939.614 68.1C938.134 69.1 936.401 69.6 934.414 69.6ZM923.994 78.6V47.4H928.254V62.56H928.854V78.6H923.994ZM933.674 65.28C934.928 65.28 935.961 64.9667 936.774 64.34C937.588 63.7133 938.188 62.8667 938.574 61.8C938.974 60.72 939.174 59.52 939.174 58.2C939.174 56.8933 938.974 55.7067 938.574 54.64C938.174 53.56 937.554 52.7067 936.714 52.08C935.874 51.44 934.808 51.12 933.514 51.12C932.288 51.12 931.288 51.42 930.514 52.02C929.741 52.6067 929.168 53.4333 928.794 54.5C928.434 55.5533 928.254 56.7867 928.254 58.2C928.254 59.6 928.434 60.8333 928.794 61.9C929.168 62.9667 929.748 63.8 930.534 64.4C931.334 64.9867 932.381 65.28 933.674 65.28ZM958.223 69.6C956.063 69.6 954.176 69.1133 952.563 68.14C950.949 67.1667 949.696 65.8267 948.803 64.12C947.923 62.4 947.483 60.4267 947.483 58.2C947.483 55.9333 947.936 53.9467 948.843 52.24C949.749 50.5333 951.009 49.2 952.623 48.24C954.236 47.28 956.103 46.8 958.223 46.8C960.396 46.8 962.289 47.2867 963.903 48.26C965.516 49.2333 966.769 50.58 967.663 52.3C968.556 54.0067 969.003 55.9733 969.003 58.2C969.003 60.44 968.549 62.42 967.643 64.14C966.749 65.8467 965.496 67.1867 963.883 68.16C962.269 69.12 960.383 69.6 958.223 69.6ZM958.223 65.08C960.143 65.08 961.569 64.44 962.503 63.16C963.436 61.88 963.903 60.2267 963.903 58.2C963.903 56.1067 963.429 54.44 962.483 53.2C961.536 51.9467 960.116 51.32 958.223 51.32C956.929 51.32 955.863 51.6133 955.023 52.2C954.196 52.7733 953.583 53.58 953.183 54.62C952.783 55.6467 952.583 56.84 952.583 58.2C952.583 60.2933 953.056 61.9667 954.003 63.22C954.963 64.46 956.369 65.08 958.223 65.08ZM981.242 69.6C978.575 69.6 976.408 69 974.742 67.8C973.075 66.6 972.062 64.9133 971.702 62.74L976.622 61.98C976.875 63.0467 977.435 63.8867 978.302 64.5C979.168 65.1133 980.262 65.42 981.582 65.42C982.742 65.42 983.635 65.1933 984.262 64.74C984.902 64.2733 985.222 63.64 985.222 62.84C985.222 62.3467 985.102 61.9533 984.862 61.66C984.635 61.3533 984.128 61.06 983.342 60.78C982.555 60.5 981.348 60.1467 979.722 59.72C977.908 59.24 976.468 58.7267 975.402 58.18C974.335 57.62 973.568 56.96 973.102 56.2C972.635 55.44 972.402 54.52 972.402 53.44C972.402 52.0933 972.755 50.92 973.462 49.92C974.168 48.92 975.155 48.1533 976.422 47.62C977.688 47.0733 979.182 46.8 980.902 46.8C982.582 46.8 984.068 47.06 985.362 47.58C986.668 48.1 987.722 48.84 988.522 49.8C989.322 50.76 989.815 51.8867 990.002 53.18L985.082 54.06C984.962 53.14 984.542 52.4133 983.822 51.88C983.115 51.3467 982.168 51.0467 980.982 50.98C979.848 50.9133 978.935 51.0867 978.242 51.5C977.548 51.9 977.202 52.4667 977.202 53.2C977.202 53.6133 977.342 53.9667 977.622 54.26C977.902 54.5533 978.462 54.8467 979.302 55.14C980.155 55.4333 981.422 55.7933 983.102 56.22C984.822 56.66 986.195 57.1667 987.222 57.74C988.262 58.3 989.008 58.9733 989.462 59.76C989.928 60.5467 990.162 61.5 990.162 62.62C990.162 64.7933 989.368 66.5 987.782 67.74C986.208 68.98 984.028 69.6 981.242 69.6ZM994.942 44.12V39.7H999.762V44.12H994.942ZM994.942 69V47.4H999.762V69H994.942ZM1018.41 69C1016.99 69.2667 1015.59 69.38 1014.21 69.34C1012.85 69.3133 1011.63 69.0667 1010.55 68.6C1009.47 68.12 1008.65 67.3667 1008.09 66.34C1007.6 65.4067 1007.34 64.4533 1007.31 63.48C1007.29 62.5067 1007.27 61.4067 1007.27 60.18V41.4H1012.07V59.9C1012.07 60.7667 1012.08 61.5267 1012.09 62.18C1012.12 62.8333 1012.26 63.3667 1012.51 63.78C1012.99 64.58 1013.76 65.0267 1014.81 65.12C1015.87 65.2133 1017.07 65.16 1018.41 64.96V69ZM1003.35 51.18V47.4H1018.41V51.18H1003.35ZM1031.78 69.6C1029.6 69.6 1027.68 69.1267 1026.02 68.18C1024.37 67.2333 1023.08 65.92 1022.14 64.24C1021.22 62.56 1020.76 60.6267 1020.76 58.44C1020.76 56.08 1021.22 54.0333 1022.12 52.3C1023.03 50.5533 1024.29 49.2 1025.9 48.24C1027.52 47.28 1029.38 46.8 1031.5 46.8C1033.74 46.8 1035.64 47.3267 1037.2 48.38C1038.78 49.42 1039.94 50.8933 1040.7 52.8C1041.46 54.7067 1041.75 56.9533 1041.56 59.54H1036.78V57.78C1036.77 55.4333 1036.36 53.72 1035.54 52.64C1034.73 51.56 1033.45 51.02 1031.7 51.02C1029.73 51.02 1028.26 51.6333 1027.3 52.86C1026.34 54.0733 1025.86 55.8533 1025.86 58.2C1025.86 60.3867 1026.34 62.08 1027.3 63.28C1028.26 64.48 1029.66 65.08 1031.5 65.08C1032.69 65.08 1033.71 64.82 1034.56 64.3C1035.43 63.7667 1036.1 63 1036.56 62L1041.32 63.44C1040.5 65.3867 1039.22 66.9 1037.48 67.98C1035.76 69.06 1033.86 69.6 1031.78 69.6ZM1024.34 59.54V55.9H1039.2V59.54H1024.34Z" fill="#081C0B"/>
</g>
<g id="paint">
<g id="background">
<path d="M615.719 2.4454C615.388 1.78062 615.872 1 616.614 1H779.55C779.936 1 780.287 1.22234 780.453 1.5712L806.789 57.055C806.922 57.3356 806.917 57.6621 806.776 57.9387L780.46 109.455C780.289 109.789 779.946 110 779.57 110H616.614C615.872 110 615.388 109.219 615.719 108.555L641.89 55.9454C642.03 55.6649 642.03 55.3351 641.89 55.0546L615.719 2.4454Z" fill="#4EF569"/>
<path d="M615.719 2.4454C615.388 1.78062 615.872 1 616.614 1H779.55C779.936 1 780.287 1.22234 780.453 1.5712L806.789 57.055C806.922 57.3356 806.917 57.6621 806.776 57.9387L780.46 109.455C780.289 109.789 779.946 110 779.57 110H616.614C615.872 110 615.388 109.219 615.719 108.555L641.89 55.9454C642.03 55.6649 642.03 55.3351 641.89 55.0546L615.719 2.4454Z" fill="#4EF569"/>
</g>
<path id="Paint" d="M665.8 70V41.2H677.7C677.98 41.2 678.34 41.2133 678.78 41.24C679.22 41.2533 679.627 41.2933 680 41.36C681.667 41.6133 683.04 42.1667 684.12 43.02C685.213 43.8733 686.02 44.9533 686.54 46.26C687.073 47.5533 687.34 48.9933 687.34 50.58C687.34 52.1533 687.073 53.5933 686.54 54.9C686.007 56.1933 685.193 57.2667 684.1 58.12C683.02 58.9733 681.653 59.5267 680 59.78C679.627 59.8333 679.213 59.8733 678.76 59.9C678.32 59.9267 677.967 59.94 677.7 59.94H670.62V70H665.8ZM670.62 55.44H677.5C677.767 55.44 678.067 55.4267 678.4 55.4C678.733 55.3733 679.04 55.32 679.32 55.24C680.12 55.04 680.747 54.6867 681.2 54.18C681.667 53.6733 681.993 53.1 682.18 52.46C682.38 51.82 682.48 51.1933 682.48 50.58C682.48 49.9667 682.38 49.34 682.18 48.7C681.993 48.0467 681.667 47.4667 681.2 46.96C680.747 46.4533 680.12 46.1 679.32 45.9C679.04 45.82 678.733 45.7733 678.4 45.76C678.067 45.7333 677.767 45.72 677.5 45.72H670.62V55.44ZM696.84 70.6C695.28 70.6 693.96 70.3067 692.88 69.72C691.8 69.12 690.98 68.3267 690.42 67.34C689.873 66.3533 689.6 65.2667 689.6 64.08C689.6 63.04 689.773 62.1067 690.12 61.28C690.467 60.44 691 59.72 691.72 59.12C692.44 58.5067 693.373 58.0067 694.52 57.62C695.387 57.34 696.4 57.0867 697.56 56.86C698.733 56.6333 700 56.4267 701.36 56.24C702.733 56.04 704.167 55.8267 705.66 55.6L703.94 56.58C703.953 55.0867 703.62 53.9867 702.94 53.28C702.26 52.5733 701.113 52.22 699.5 52.22C698.527 52.22 697.587 52.4467 696.68 52.9C695.773 53.3533 695.14 54.1333 694.78 55.24L690.38 53.86C690.913 52.0333 691.927 50.5667 693.42 49.46C694.927 48.3533 696.953 47.8 699.5 47.8C701.42 47.8 703.107 48.1133 704.56 48.74C706.027 49.3667 707.113 50.3933 707.82 51.82C708.207 52.58 708.44 53.36 708.52 54.16C708.6 54.9467 708.64 55.8067 708.64 56.74V70H704.42V65.32L705.12 66.08C704.147 67.64 703.007 68.7867 701.7 69.52C700.407 70.24 698.787 70.6 696.84 70.6ZM697.8 66.76C698.893 66.76 699.827 66.5667 700.6 66.18C701.373 65.7933 701.987 65.32 702.44 64.76C702.907 64.2 703.22 63.6733 703.38 63.18C703.633 62.5667 703.773 61.8667 703.8 61.08C703.84 60.28 703.86 59.6333 703.86 59.14L705.34 59.58C703.887 59.8067 702.64 60.0067 701.6 60.18C700.56 60.3533 699.667 60.52 698.92 60.68C698.173 60.8267 697.513 60.9933 696.94 61.18C696.38 61.38 695.907 61.6133 695.52 61.88C695.133 62.1467 694.833 62.4533 694.62 62.8C694.42 63.1467 694.32 63.5533 694.32 64.02C694.32 64.5533 694.453 65.0267 694.72 65.44C694.987 65.84 695.373 66.16 695.88 66.4C696.4 66.64 697.04 66.76 697.8 66.76ZM714.247 45.12V40.7H719.067V45.12H714.247ZM714.247 70V48.4H719.067V70H714.247ZM739.998 70V59.6C739.998 58.92 739.951 58.1667 739.858 57.34C739.764 56.5133 739.544 55.72 739.198 54.96C738.864 54.1867 738.358 53.5533 737.678 53.06C737.011 52.5667 736.104 52.32 734.958 52.32C734.344 52.32 733.738 52.42 733.138 52.62C732.538 52.82 731.991 53.1667 731.498 53.66C731.018 54.14 730.631 54.8067 730.338 55.66C730.044 56.5 729.898 57.58 729.898 58.9L727.038 57.68C727.038 55.84 727.391 54.1733 728.098 52.68C728.818 51.1867 729.871 50 731.258 49.12C732.644 48.2267 734.351 47.78 736.378 47.78C737.978 47.78 739.298 48.0467 740.338 48.58C741.378 49.1133 742.204 49.7933 742.818 50.62C743.431 51.4467 743.884 52.3267 744.178 53.26C744.471 54.1933 744.658 55.08 744.738 55.92C744.831 56.7467 744.878 57.42 744.878 57.94V70H739.998ZM725.018 70V48.4H729.318V55.1H729.898V70H725.018ZM762.757 70C761.33 70.2667 759.93 70.38 758.557 70.34C757.197 70.3133 755.977 70.0667 754.897 69.6C753.817 69.12 752.997 68.3667 752.437 67.34C751.944 66.4067 751.684 65.4533 751.657 64.48C751.63 63.5067 751.617 62.4067 751.617 61.18V42.4H756.417V60.9C756.417 61.7667 756.424 62.5267 756.437 63.18C756.464 63.8333 756.604 64.3667 756.857 64.78C757.337 65.58 758.104 66.0267 759.157 66.12C760.21 66.2133 761.41 66.16 762.757 65.96V70ZM747.697 52.18V48.4H762.757V52.18H747.697Z" fill="#081C0B"/>
</g>
<g id="layout">
<g id="color_2">
<path d="M426.797 1.4753C426.437 0.809028 426.92 0 427.677 0H604.768C605.142 0 605.485 0.209087 605.657 0.541836L634.255 56.0245C634.408 56.3216 634.403 56.6755 634.241 56.9678L605.663 108.485C605.487 108.803 605.152 109 604.788 109H427.677C426.92 109 426.437 108.191 426.797 107.525L455.185 54.9753C455.345 54.6787 455.345 54.3213 455.185 54.0247L426.797 1.4753Z" fill="#A584FF"/>
<path d="M426.797 1.4753C426.437 0.809028 426.92 0 427.677 0H604.768C605.142 0 605.485 0.209087 605.657 0.541836L634.255 56.0245C634.408 56.3216 634.403 56.6755 634.241 56.9678L605.663 108.485C605.487 108.803 605.152 109 604.788 109H427.677C426.92 109 426.437 108.191 426.797 107.525L455.185 54.9753C455.345 54.6787 455.345 54.3213 455.185 54.0247L426.797 1.4753Z" fill="#A584FF"/>
</g>
<path id="Layout" d="M477.2 69V40.2H482.02V64.48H494.74V69H477.2ZM504.168 69.6C502.608 69.6 501.288 69.3067 500.208 68.72C499.128 68.12 498.308 67.3267 497.748 66.34C497.201 65.3533 496.928 64.2667 496.928 63.08C496.928 62.04 497.101 61.1067 497.448 60.28C497.795 59.44 498.328 58.72 499.048 58.12C499.768 57.5067 500.701 57.0067 501.848 56.62C502.715 56.34 503.728 56.0867 504.888 55.86C506.061 55.6333 507.328 55.4267 508.688 55.24C510.061 55.04 511.495 54.8267 512.988 54.6L511.268 55.58C511.281 54.0867 510.948 52.9867 510.268 52.28C509.588 51.5733 508.441 51.22 506.828 51.22C505.855 51.22 504.915 51.4467 504.008 51.9C503.101 52.3533 502.468 53.1333 502.108 54.24L497.708 52.86C498.241 51.0333 499.255 49.5667 500.748 48.46C502.255 47.3533 504.281 46.8 506.828 46.8C508.748 46.8 510.435 47.1133 511.888 47.74C513.355 48.3667 514.441 49.3933 515.148 50.82C515.535 51.58 515.768 52.36 515.848 53.16C515.928 53.9467 515.968 54.8067 515.968 55.74V69H511.748V64.32L512.448 65.08C511.475 66.64 510.335 67.7867 509.028 68.52C507.735 69.24 506.115 69.6 504.168 69.6ZM505.128 65.76C506.221 65.76 507.155 65.5667 507.928 65.18C508.701 64.7933 509.315 64.32 509.768 63.76C510.235 63.2 510.548 62.6733 510.708 62.18C510.961 61.5667 511.101 60.8667 511.128 60.08C511.168 59.28 511.188 58.6333 511.188 58.14L512.668 58.58C511.215 58.8067 509.968 59.0067 508.928 59.18C507.888 59.3533 506.995 59.52 506.248 59.68C505.501 59.8267 504.841 59.9933 504.268 60.18C503.708 60.38 503.235 60.6133 502.848 60.88C502.461 61.1467 502.161 61.4533 501.948 61.8C501.748 62.1467 501.648 62.5533 501.648 63.02C501.648 63.5533 501.781 64.0267 502.048 64.44C502.315 64.84 502.701 65.16 503.208 65.4C503.728 65.64 504.368 65.76 505.128 65.76ZM522.804 78.6L526.964 67.18L527.044 70.54L517.624 47.4H522.644L529.324 64.52H528.044L534.544 47.4H539.364L527.324 78.6H522.804ZM551.106 69.6C548.946 69.6 547.059 69.1133 545.446 68.14C543.832 67.1667 542.579 65.8267 541.686 64.12C540.806 62.4 540.366 60.4267 540.366 58.2C540.366 55.9333 540.819 53.9467 541.726 52.24C542.632 50.5333 543.892 49.2 545.506 48.24C547.119 47.28 548.986 46.8 551.106 46.8C553.279 46.8 555.172 47.2867 556.786 48.26C558.399 49.2333 559.652 50.58 560.546 52.3C561.439 54.0067 561.886 55.9733 561.886 58.2C561.886 60.44 561.432 62.42 560.526 64.14C559.632 65.8467 558.379 67.1867 556.766 68.16C555.152 69.12 553.266 69.6 551.106 69.6ZM551.106 65.08C553.026 65.08 554.452 64.44 555.386 63.16C556.319 61.88 556.786 60.2267 556.786 58.2C556.786 56.1067 556.312 54.44 555.366 53.2C554.419 51.9467 552.999 51.32 551.106 51.32C549.812 51.32 548.746 51.6133 547.906 52.2C547.079 52.7733 546.466 53.58 546.066 54.62C545.666 55.6467 545.466 56.84 545.466 58.2C545.466 60.2933 545.939 61.9667 546.886 63.22C547.846 64.46 549.252 65.08 551.106 65.08ZM574.392 69.62C572.792 69.62 571.472 69.3533 570.432 68.82C569.392 68.2867 568.566 67.6067 567.952 66.78C567.339 65.9533 566.886 65.0733 566.592 64.14C566.299 63.2067 566.106 62.3267 566.012 61.5C565.932 60.66 565.892 59.98 565.892 59.46V47.4H570.772V57.8C570.772 58.4667 570.819 59.22 570.912 60.06C571.006 60.8867 571.219 61.6867 571.552 62.46C571.899 63.22 572.406 63.8467 573.072 64.34C573.752 64.8333 574.666 65.08 575.812 65.08C576.426 65.08 577.032 64.98 577.632 64.78C578.232 64.58 578.772 64.24 579.252 63.76C579.746 63.2667 580.139 62.5933 580.432 61.74C580.726 60.8867 580.872 59.8067 580.872 58.5L583.732 59.72C583.732 61.56 583.372 63.2267 582.652 64.72C581.946 66.2133 580.899 67.4067 579.512 68.3C578.126 69.18 576.419 69.62 574.392 69.62ZM581.452 69V62.3H580.872V47.4H585.712V69H581.452ZM603.991 69C602.565 69.2667 601.165 69.38 599.791 69.34C598.431 69.3133 597.211 69.0667 596.131 68.6C595.051 68.12 594.231 67.3667 593.671 66.34C593.178 65.4067 592.918 64.4533 592.891 63.48C592.865 62.5067 592.851 61.4067 592.851 60.18V41.4H597.651V59.9C597.651 60.7667 597.658 61.5267 597.671 62.18C597.698 62.8333 597.838 63.3667 598.091 63.78C598.571 64.58 599.338 65.0267 600.391 65.12C601.445 65.2133 602.645 65.16 603.991 64.96V69ZM588.931 51.18V47.4H603.991V51.18H588.931Z" fill="#26184B"/>
</g>
<g id="style">
<g id="color_3">
<path d="M253.715 1.44392C253.386 0.779244 253.87 0 254.611 0H416.894C417.267 0 417.608 0.206876 417.781 0.536888L446.254 55.0283C446.408 55.3232 446.405 55.6754 446.246 55.9679L417.784 108.477C417.609 108.799 417.271 109 416.905 109H254.611C253.87 109 253.386 108.221 253.715 107.556L279.78 54.9439C279.919 54.6642 279.919 54.3358 279.78 54.0561L253.715 1.44392Z" fill="#A584FF"/>
<path d="M253.715 1.44392C253.386 0.779244 253.87 0 254.611 0H416.894C417.267 0 417.608 0.206876 417.781 0.536888L446.254 55.0283C446.408 55.3232 446.405 55.6754 446.246 55.9679L417.784 108.477C417.609 108.799 417.271 109 416.905 109H254.611C253.87 109 253.386 108.221 253.715 107.556L279.78 54.9439C279.919 54.6642 279.919 54.3358 279.78 54.0561L253.715 1.44392Z" fill="#A584FF"/>
</g>
<path id="Style" d="M314.46 69.6C312.353 69.6 310.453 69.2333 308.76 68.5C307.08 67.7667 305.693 66.72 304.6 65.36C303.52 63.9867 302.833 62.36 302.54 60.48L307.54 59.72C307.967 61.4267 308.84 62.7467 310.16 63.68C311.493 64.6133 313.027 65.08 314.76 65.08C315.787 65.08 316.753 64.92 317.66 64.6C318.567 64.28 319.3 63.8133 319.86 63.2C320.433 62.5867 320.72 61.8333 320.72 60.94C320.72 60.54 320.653 60.1733 320.52 59.84C320.387 59.4933 320.187 59.1867 319.92 58.92C319.667 58.6533 319.333 58.4133 318.92 58.2C318.52 57.9733 318.053 57.78 317.52 57.62L310.08 55.42C309.44 55.2333 308.747 54.9867 308 54.68C307.267 54.36 306.567 53.9267 305.9 53.38C305.247 52.82 304.707 52.1133 304.28 51.26C303.867 50.3933 303.66 49.3267 303.66 48.06C303.66 46.2067 304.127 44.6533 305.06 43.4C306.007 42.1333 307.273 41.1867 308.86 40.56C310.46 39.9333 312.233 39.6267 314.18 39.64C316.153 39.6533 317.913 39.9933 319.46 40.66C321.007 41.3133 322.3 42.2667 323.34 43.52C324.38 44.7733 325.113 46.2867 325.54 48.06L320.36 48.96C320.147 47.9467 319.733 47.0867 319.12 46.38C318.52 45.66 317.78 45.1133 316.9 44.74C316.033 44.3667 315.107 44.1667 314.12 44.14C313.16 44.1267 312.267 44.2733 311.44 44.58C310.627 44.8733 309.967 45.3 309.46 45.86C308.967 46.42 308.72 47.0733 308.72 47.82C308.72 48.5267 308.933 49.1067 309.36 49.56C309.787 50 310.313 50.3533 310.94 50.62C311.58 50.8733 312.227 51.0867 312.88 51.26L318.04 52.7C318.747 52.8867 319.54 53.14 320.42 53.46C321.3 53.78 322.147 54.2267 322.96 54.8C323.773 55.3733 324.44 56.1267 324.96 57.06C325.493 57.9933 325.76 59.18 325.76 60.62C325.76 62.1133 325.447 63.4267 324.82 64.56C324.207 65.68 323.373 66.6133 322.32 67.36C321.267 68.1067 320.06 68.6667 318.7 69.04C317.353 69.4133 315.94 69.6 314.46 69.6ZM342.749 69C341.322 69.2667 339.922 69.38 338.549 69.34C337.189 69.3133 335.969 69.0667 334.889 68.6C333.809 68.12 332.989 67.3667 332.429 66.34C331.936 65.4067 331.676 64.4533 331.649 63.48C331.622 62.5067 331.609 61.4067 331.609 60.18V41.4H336.409V59.9C336.409 60.7667 336.416 61.5267 336.429 62.18C336.456 62.8333 336.596 63.3667 336.849 63.78C337.329 64.58 338.096 65.0267 339.149 65.12C340.202 65.2133 341.402 65.16 342.749 64.96V69ZM327.689 51.18V47.4H342.749V51.18H327.689ZM349.648 78.6L353.808 67.18L353.888 70.54L344.468 47.4H349.488L356.168 64.52H354.888L361.388 47.4H366.208L354.168 78.6H349.648ZM369.591 69V39.6H374.411V69H369.591ZM390.222 69.6C388.035 69.6 386.115 69.1267 384.462 68.18C382.808 67.2333 381.515 65.92 380.582 64.24C379.662 62.56 379.202 60.6267 379.202 58.44C379.202 56.08 379.655 54.0333 380.562 52.3C381.468 50.5533 382.728 49.2 384.342 48.24C385.955 47.28 387.822 46.8 389.942 46.8C392.182 46.8 394.082 47.3267 395.642 48.38C397.215 49.42 398.382 50.8933 399.142 52.8C399.902 54.7067 400.188 56.9533 400.002 59.54H395.222V57.78C395.208 55.4333 394.795 53.72 393.982 52.64C393.168 51.56 391.888 51.02 390.142 51.02C388.168 51.02 386.702 51.6333 385.742 52.86C384.782 54.0733 384.302 55.8533 384.302 58.2C384.302 60.3867 384.782 62.08 385.742 63.28C386.702 64.48 388.102 65.08 389.942 65.08C391.128 65.08 392.148 64.82 393.002 64.3C393.868 63.7667 394.535 63 395.002 62L399.762 63.44C398.935 65.3867 397.655 66.9 395.922 67.98C394.202 69.06 392.302 69.6 390.222 69.6ZM382.782 59.54V55.9H397.642V59.54H382.782Z" fill="#26184B"/>
</g>
<g id="js">
<g id="color_4">
<path d="M0 0.999997C0 0.447713 0.447715 0 1 0H243.369C243.755 0 244.106 0.221395 244.272 0.56912L270.29 55.0611C270.423 55.3382 270.42 55.6607 270.284 55.9358L244.275 108.444C244.107 108.784 243.76 109 243.379 109H0.999999C0.447714 109 0 108.552 0 108V0.999997Z" fill="#FFBF21"/>
<path d="M0 0.999997C0 0.447713 0.447715 0 1 0H243.369C243.755 0 244.106 0.221395 244.272 0.56912L270.29 55.0611C270.423 55.3382 270.42 55.6607 270.284 55.9358L244.275 108.444C244.107 108.784 243.76 109 243.379 109H0.999999C0.447714 109 0 108.552 0 108V0.999997Z" fill="#FFBF21"/>
</g>
<path id="JavaScript" d="M33.56 69.6C31.36 69.6 29.5267 69.0267 28.06 67.88C26.6067 66.7333 25.5867 65.1867 25 63.24L29.76 62.1C29.9067 62.9133 30.3333 63.6133 31.04 64.2C31.7467 64.7867 32.5267 65.08 33.38 65.08C33.94 65.08 34.5333 64.9333 35.16 64.64C35.7867 64.3333 36.2533 63.8467 36.56 63.18C36.7467 62.7533 36.8533 62.2467 36.88 61.66C36.92 61.06 36.94 60.3667 36.94 59.58V40.2H41.82V59.58C41.82 60.4733 41.8133 61.26 41.8 61.94C41.8 62.6067 41.7333 63.24 41.6 63.84C41.48 64.4267 41.2333 65.0333 40.86 65.66C40.0733 67.02 39.0467 68.02 37.78 68.66C36.5133 69.2867 35.1067 69.6 33.56 69.6ZM53.8791 69.6C52.3191 69.6 50.9991 69.3067 49.9191 68.72C48.8391 68.12 48.0191 67.3267 47.4591 66.34C46.9124 65.3533 46.6391 64.2667 46.6391 63.08C46.6391 62.04 46.8124 61.1067 47.1591 60.28C47.5057 59.44 48.0391 58.72 48.7591 58.12C49.4791 57.5067 50.4124 57.0067 51.5591 56.62C52.4257 56.34 53.4391 56.0867 54.5991 55.86C55.7724 55.6333 57.0391 55.4267 58.3991 55.24C59.7724 55.04 61.2057 54.8267 62.6991 54.6L60.9791 55.58C60.9924 54.0867 60.6591 52.9867 59.9791 52.28C59.2991 51.5733 58.1524 51.22 56.5391 51.22C55.5657 51.22 54.6257 51.4467 53.7191 51.9C52.8124 52.3533 52.1791 53.1333 51.8191 54.24L47.4191 52.86C47.9524 51.0333 48.9657 49.5667 50.4591 48.46C51.9657 47.3533 53.9924 46.8 56.5391 46.8C58.4591 46.8 60.1457 47.1133 61.5991 47.74C63.0657 48.3667 64.1524 49.3933 64.8591 50.82C65.2457 51.58 65.4791 52.36 65.5591 53.16C65.6391 53.9467 65.6791 54.8067 65.6791 55.74V69H61.4591V64.32L62.1591 65.08C61.1857 66.64 60.0457 67.7867 58.7391 68.52C57.4457 69.24 55.8257 69.6 53.8791 69.6ZM54.8391 65.76C55.9324 65.76 56.8657 65.5667 57.6391 65.18C58.4124 64.7933 59.0257 64.32 59.4791 63.76C59.9457 63.2 60.2591 62.6733 60.4191 62.18C60.6724 61.5667 60.8124 60.8667 60.8391 60.08C60.8791 59.28 60.8991 58.6333 60.8991 58.14L62.3791 58.58C60.9257 58.8067 59.6791 59.0067 58.6391 59.18C57.5991 59.3533 56.7057 59.52 55.9591 59.68C55.2124 59.8267 54.5524 59.9933 53.9791 60.18C53.4191 60.38 52.9457 60.6133 52.5591 60.88C52.1724 61.1467 51.8724 61.4533 51.6591 61.8C51.4591 62.1467 51.3591 62.5533 51.3591 63.02C51.3591 63.5533 51.4924 64.0267 51.7591 64.44C52.0257 64.84 52.4124 65.16 52.9191 65.4C53.4391 65.64 54.0791 65.76 54.8391 65.76ZM75.9447 69L68.1047 47.4H72.9247L78.3647 63.06L83.7847 47.4H88.6247L80.7847 69H75.9447ZM97.0431 69.6C95.4831 69.6 94.1631 69.3067 93.0831 68.72C92.0031 68.12 91.1831 67.3267 90.6231 66.34C90.0765 65.3533 89.8031 64.2667 89.8031 63.08C89.8031 62.04 89.9765 61.1067 90.3231 60.28C90.6698 59.44 91.2031 58.72 91.9231 58.12C92.6431 57.5067 93.5765 57.0067 94.7231 56.62C95.5898 56.34 96.6031 56.0867 97.7631 55.86C98.9365 55.6333 100.203 55.4267 101.563 55.24C102.936 55.04 104.37 54.8267 105.863 54.6L104.143 55.58C104.156 54.0867 103.823 52.9867 103.143 52.28C102.463 51.5733 101.316 51.22 99.7031 51.22C98.7298 51.22 97.7898 51.4467 96.8831 51.9C95.9765 52.3533 95.3431 53.1333 94.9831 54.24L90.5831 52.86C91.1165 51.0333 92.1298 49.5667 93.6231 48.46C95.1298 47.3533 97.1565 46.8 99.7031 46.8C101.623 46.8 103.31 47.1133 104.763 47.74C106.23 48.3667 107.316 49.3933 108.023 50.82C108.41 51.58 108.643 52.36 108.723 53.16C108.803 53.9467 108.843 54.8067 108.843 55.74V69H104.623V64.32L105.323 65.08C104.35 66.64 103.21 67.7867 101.903 68.52C100.61 69.24 98.9898 69.6 97.0431 69.6ZM98.0031 65.76C99.0965 65.76 100.03 65.5667 100.803 65.18C101.576 64.7933 102.19 64.32 102.643 63.76C103.11 63.2 103.423 62.6733 103.583 62.18C103.836 61.5667 103.976 60.8667 104.003 60.08C104.043 59.28 104.063 58.6333 104.063 58.14L105.543 58.58C104.09 58.8067 102.843 59.0067 101.803 59.18C100.763 59.3533 99.8698 59.52 99.1231 59.68C98.3765 59.8267 97.7165 59.9933 97.1431 60.18C96.5831 60.38 96.1098 60.6133 95.7231 60.88C95.3365 61.1467 95.0365 61.4533 94.8231 61.8C94.6231 62.1467 94.5231 62.5533 94.5231 63.02C94.5231 63.5533 94.6565 64.0267 94.9231 64.44C95.1898 64.84 95.5765 65.16 96.0831 65.4C96.6031 65.64 97.2431 65.76 98.0031 65.76ZM124.71 69.6C122.603 69.6 120.703 69.2333 119.01 68.5C117.33 67.7667 115.943 66.72 114.85 65.36C113.77 63.9867 113.083 62.36 112.79 60.48L117.79 59.72C118.217 61.4267 119.09 62.7467 120.41 63.68C121.743 64.6133 123.277 65.08 125.01 65.08C126.037 65.08 127.003 64.92 127.91 64.6C128.817 64.28 129.55 63.8133 130.11 63.2C130.683 62.5867 130.97 61.8333 130.97 60.94C130.97 60.54 130.903 60.1733 130.77 59.84C130.637 59.4933 130.437 59.1867 130.17 58.92C129.917 58.6533 129.583 58.4133 129.17 58.2C128.77 57.9733 128.303 57.78 127.77 57.62L120.33 55.42C119.69 55.2333 118.997 54.9867 118.25 54.68C117.517 54.36 116.817 53.9267 116.15 53.38C115.497 52.82 114.957 52.1133 114.53 51.26C114.117 50.3933 113.91 49.3267 113.91 48.06C113.91 46.2067 114.377 44.6533 115.31 43.4C116.257 42.1333 117.523 41.1867 119.11 40.56C120.71 39.9333 122.483 39.6267 124.43 39.64C126.403 39.6533 128.163 39.9933 129.71 40.66C131.257 41.3133 132.55 42.2667 133.59 43.52C134.63 44.7733 135.363 46.2867 135.79 48.06L130.61 48.96C130.397 47.9467 129.983 47.0867 129.37 46.38C128.77 45.66 128.03 45.1133 127.15 44.74C126.283 44.3667 125.357 44.1667 124.37 44.14C123.41 44.1267 122.517 44.2733 121.69 44.58C120.877 44.8733 120.217 45.3 119.71 45.86C119.217 46.42 118.97 47.0733 118.97 47.82C118.97 48.5267 119.183 49.1067 119.61 49.56C120.037 50 120.563 50.3533 121.19 50.62C121.83 50.8733 122.477 51.0867 123.13 51.26L128.29 52.7C128.997 52.8867 129.79 53.14 130.67 53.46C131.55 53.78 132.397 54.2267 133.21 54.8C134.023 55.3733 134.69 56.1267 135.21 57.06C135.743 57.9933 136.01 59.18 136.01 60.62C136.01 62.1133 135.697 63.4267 135.07 64.56C134.457 65.68 133.623 66.6133 132.57 67.36C131.517 68.1067 130.31 68.6667 128.95 69.04C127.603 69.4133 126.19 69.6 124.71 69.6ZM149.719 69.6C147.492 69.6 145.592 69.1067 144.019 68.12C142.446 67.12 141.239 65.76 140.399 64.04C139.572 62.32 139.152 60.3733 139.139 58.2C139.152 55.9867 139.586 54.0267 140.439 52.32C141.306 50.6 142.532 49.2533 144.119 48.28C145.706 47.2933 147.592 46.8 149.779 46.8C152.232 46.8 154.306 47.42 155.999 48.66C157.706 49.8867 158.819 51.5667 159.339 53.7L154.539 55C154.166 53.84 153.546 52.94 152.679 52.3C151.812 51.6467 150.826 51.32 149.719 51.32C148.466 51.32 147.432 51.62 146.619 52.22C145.806 52.8067 145.206 53.62 144.819 54.66C144.432 55.7 144.239 56.88 144.239 58.2C144.239 60.2533 144.699 61.9133 145.619 63.18C146.539 64.4467 147.906 65.08 149.719 65.08C150.999 65.08 152.006 64.7867 152.739 64.2C153.486 63.6133 154.046 62.7667 154.419 61.66L159.339 62.76C158.672 64.96 157.506 66.6533 155.839 67.84C154.172 69.0133 152.132 69.6 149.719 69.6ZM163.347 69V47.4H167.607V52.66L167.087 51.98C167.354 51.26 167.707 50.6067 168.147 50.02C168.6 49.42 169.14 48.9267 169.767 48.54C170.3 48.18 170.887 47.9 171.527 47.7C172.18 47.4867 172.847 47.36 173.527 47.32C174.207 47.2667 174.867 47.2933 175.507 47.4V51.9C174.867 51.7133 174.127 51.6533 173.287 51.72C172.46 51.7867 171.714 52.02 171.047 52.42C170.38 52.78 169.834 53.24 169.407 53.8C168.994 54.36 168.687 55 168.487 55.72C168.287 56.4267 168.187 57.1933 168.187 58.02V69H163.347ZM179.723 44.12V39.7H184.543V44.12H179.723ZM179.723 69V47.4H184.543V69H179.723ZM200.914 69.6C198.808 69.6 197.041 69.1 195.614 68.1C194.188 67.1 193.114 65.74 192.394 64.02C191.674 62.2867 191.314 60.3467 191.314 58.2C191.314 56.0267 191.674 54.08 192.394 52.36C193.114 50.64 194.168 49.2867 195.554 48.3C196.954 47.3 198.681 46.8 200.734 46.8C202.774 46.8 204.541 47.3 206.034 48.3C207.541 49.2867 208.708 50.64 209.534 52.36C210.361 54.0667 210.774 56.0133 210.774 58.2C210.774 60.36 210.368 62.3 209.554 64.02C208.741 65.74 207.594 67.1 206.114 68.1C204.634 69.1 202.901 69.6 200.914 69.6ZM190.494 78.6V47.4H194.754V62.56H195.354V78.6H190.494ZM200.174 65.28C201.428 65.28 202.461 64.9667 203.274 64.34C204.088 63.7133 204.688 62.8667 205.074 61.8C205.474 60.72 205.674 59.52 205.674 58.2C205.674 56.8933 205.474 55.7067 205.074 54.64C204.674 53.56 204.054 52.7067 203.214 52.08C202.374 51.44 201.308 51.12 200.014 51.12C198.788 51.12 197.788 51.42 197.014 52.02C196.241 52.6067 195.668 53.4333 195.294 54.5C194.934 55.5533 194.754 56.7867 194.754 58.2C194.754 59.6 194.934 60.8333 195.294 61.9C195.668 62.9667 196.248 63.8 197.034 64.4C197.834 64.9867 198.881 65.28 200.174 65.28ZM227.843 69C226.416 69.2667 225.016 69.38 223.643 69.34C222.283 69.3133 221.063 69.0667 219.983 68.6C218.903 68.12 218.083 67.3667 217.523 66.34C217.029 65.4067 216.769 64.4533 216.743 63.48C216.716 62.5067 216.703 61.4067 216.703 60.18V41.4H221.503V59.9C221.503 60.7667 221.509 61.5267 221.523 62.18C221.549 62.8333 221.689 63.3667 221.943 63.78C222.423 64.58 223.189 65.0267 224.243 65.12C225.296 65.2133 226.496 65.16 227.843 64.96V69ZM212.783 51.18V47.4H227.843V51.18H212.783Z" fill="#1B1405"/>
</g>
</g>
<defs>
<clipPath id="clip0_1_4">
<rect width="1056" height="109" fill="white"/>
</clipPath>
</defs>
</svg>
